<mxfile host="Electron" modified="2024-01-25T16:15:43.534Z" agent="Mozilla/5.0 (Macintosh; Intel Mac OS X 10_15_7) AppleWebKit/537.36 (KHTML, like Gecko) draw.io/21.1.2 Chrome/106.0.5249.199 Electron/21.4.3 Safari/537.36" etag="PeBvc2_H9c491oJSLVLm" version="21.1.2" type="device">
  <diagram id="C5RBs43oDa-KdzZeNtuy" name="Page-1">
    <mxGraphModel dx="1314" dy="2037" grid="1" gridSize="10" guides="1" tooltips="1" connect="1" arrows="1" fold="1" page="1" pageScale="1" pageWidth="827" pageHeight="1169" math="0" shadow="0">
      <root>
        <mxCell id="WIyWlLk6GJQsqaUBKTNV-0" />
        <mxCell id="WIyWlLk6GJQsqaUBKTNV-1" parent="WIyWlLk6GJQsqaUBKTNV-0" />
        <mxCell id="9uluXXyxtx34aAbPC6YU-5" style="edgeStyle=orthogonalEdgeStyle;rounded=0;orthogonalLoop=1;jettySize=auto;html=1;exitX=0.5;exitY=1;exitDx=0;exitDy=0;exitPerimeter=0;" edge="1" parent="WIyWlLk6GJQsqaUBKTNV-1" source="9uluXXyxtx34aAbPC6YU-17" target="9uluXXyxtx34aAbPC6YU-4">
          <mxGeometry relative="1" as="geometry">
            <mxPoint x="200" y="60" as="sourcePoint" />
          </mxGeometry>
        </mxCell>
        <mxCell id="9uluXXyxtx34aAbPC6YU-7" style="edgeStyle=orthogonalEdgeStyle;rounded=0;orthogonalLoop=1;jettySize=auto;html=1;entryX=0;entryY=0.5;entryDx=0;entryDy=0;entryPerimeter=0;" edge="1" parent="WIyWlLk6GJQsqaUBKTNV-1" source="9uluXXyxtx34aAbPC6YU-4" target="9uluXXyxtx34aAbPC6YU-6">
          <mxGeometry relative="1" as="geometry" />
        </mxCell>
        <mxCell id="9uluXXyxtx34aAbPC6YU-8" value="Yes" style="edgeLabel;html=1;align=center;verticalAlign=middle;resizable=0;points=[];" vertex="1" connectable="0" parent="9uluXXyxtx34aAbPC6YU-7">
          <mxGeometry x="0.1385" y="3" relative="1" as="geometry">
            <mxPoint x="-9" y="3" as="offset" />
          </mxGeometry>
        </mxCell>
        <mxCell id="9uluXXyxtx34aAbPC6YU-15" value="" style="edgeStyle=orthogonalEdgeStyle;rounded=0;orthogonalLoop=1;jettySize=auto;html=1;entryX=0.5;entryY=0;entryDx=0;entryDy=0;" edge="1" parent="WIyWlLk6GJQsqaUBKTNV-1" source="9uluXXyxtx34aAbPC6YU-4" target="9uluXXyxtx34aAbPC6YU-16">
          <mxGeometry relative="1" as="geometry">
            <mxPoint x="200" y="300" as="targetPoint" />
          </mxGeometry>
        </mxCell>
        <mxCell id="9uluXXyxtx34aAbPC6YU-4" value="Workflow&lt;br&gt;Ready?" style="strokeWidth=2;html=1;shape=mxgraph.flowchart.decision;whiteSpace=wrap;" vertex="1" parent="WIyWlLk6GJQsqaUBKTNV-1">
          <mxGeometry x="87.5" y="100" width="105" height="100" as="geometry" />
        </mxCell>
        <mxCell id="9uluXXyxtx34aAbPC6YU-9" style="edgeStyle=orthogonalEdgeStyle;rounded=0;orthogonalLoop=1;jettySize=auto;html=1;exitX=0.5;exitY=0;exitDx=0;exitDy=0;exitPerimeter=0;entryX=0.5;entryY=0;entryDx=0;entryDy=0;entryPerimeter=0;" edge="1" parent="WIyWlLk6GJQsqaUBKTNV-1" source="9uluXXyxtx34aAbPC6YU-6" target="9uluXXyxtx34aAbPC6YU-4">
          <mxGeometry relative="1" as="geometry">
            <Array as="points" />
          </mxGeometry>
        </mxCell>
        <mxCell id="9uluXXyxtx34aAbPC6YU-10" value="No" style="edgeLabel;html=1;align=center;verticalAlign=middle;resizable=0;points=[];" vertex="1" connectable="0" parent="9uluXXyxtx34aAbPC6YU-9">
          <mxGeometry x="-0.0889" y="4" relative="1" as="geometry">
            <mxPoint x="-4" y="-4" as="offset" />
          </mxGeometry>
        </mxCell>
        <mxCell id="9uluXXyxtx34aAbPC6YU-12" style="edgeStyle=orthogonalEdgeStyle;rounded=0;orthogonalLoop=1;jettySize=auto;html=1;entryX=0;entryY=0.5;entryDx=0;entryDy=0;entryPerimeter=0;" edge="1" parent="WIyWlLk6GJQsqaUBKTNV-1" source="9uluXXyxtx34aAbPC6YU-6" target="9uluXXyxtx34aAbPC6YU-11">
          <mxGeometry relative="1" as="geometry" />
        </mxCell>
        <mxCell id="9uluXXyxtx34aAbPC6YU-13" value="Yes" style="edgeLabel;html=1;align=center;verticalAlign=middle;resizable=0;points=[];" vertex="1" connectable="0" parent="9uluXXyxtx34aAbPC6YU-12">
          <mxGeometry x="-0.2909" y="1" relative="1" as="geometry">
            <mxPoint x="7" y="1" as="offset" />
          </mxGeometry>
        </mxCell>
        <mxCell id="9uluXXyxtx34aAbPC6YU-6" value="5 mins&lt;br&gt;passed from&lt;br&gt;1st check?" style="strokeWidth=2;html=1;shape=mxgraph.flowchart.decision;whiteSpace=wrap;" vertex="1" parent="WIyWlLk6GJQsqaUBKTNV-1">
          <mxGeometry x="330" y="100" width="100" height="100" as="geometry" />
        </mxCell>
        <mxCell id="9uluXXyxtx34aAbPC6YU-11" value="Cancel run" style="strokeWidth=2;html=1;shape=mxgraph.flowchart.terminator;whiteSpace=wrap;" vertex="1" parent="WIyWlLk6GJQsqaUBKTNV-1">
          <mxGeometry x="570" y="135" width="80" height="30" as="geometry" />
        </mxCell>
        <mxCell id="9uluXXyxtx34aAbPC6YU-19" style="edgeStyle=orthogonalEdgeStyle;rounded=0;orthogonalLoop=1;jettySize=auto;html=1;exitX=0.5;exitY=1;exitDx=0;exitDy=0;entryX=0.5;entryY=0;entryDx=0;entryDy=0;" edge="1" parent="WIyWlLk6GJQsqaUBKTNV-1" source="9uluXXyxtx34aAbPC6YU-16" target="9uluXXyxtx34aAbPC6YU-18">
          <mxGeometry relative="1" as="geometry" />
        </mxCell>
        <mxCell id="9uluXXyxtx34aAbPC6YU-16" value="Checkout" style="rounded=1;whiteSpace=wrap;html=1;absoluteArcSize=1;arcSize=14;strokeWidth=4;strokeColor=#ff7d00;" vertex="1" parent="WIyWlLk6GJQsqaUBKTNV-1">
          <mxGeometry x="80" y="240" width="120" height="40" as="geometry" />
        </mxCell>
        <mxCell id="9uluXXyxtx34aAbPC6YU-17" value="Push event on branch &lt;b&gt;master&lt;/b&gt;" style="strokeWidth=2;html=1;shape=mxgraph.flowchart.start_1;whiteSpace=wrap;" vertex="1" parent="WIyWlLk6GJQsqaUBKTNV-1">
          <mxGeometry x="85" width="110" height="60" as="geometry" />
        </mxCell>
        <mxCell id="9uluXXyxtx34aAbPC6YU-21" style="edgeStyle=orthogonalEdgeStyle;rounded=0;orthogonalLoop=1;jettySize=auto;html=1;exitX=0.5;exitY=1;exitDx=0;exitDy=0;" edge="1" parent="WIyWlLk6GJQsqaUBKTNV-1" source="9uluXXyxtx34aAbPC6YU-18" target="9uluXXyxtx34aAbPC6YU-22">
          <mxGeometry relative="1" as="geometry">
            <mxPoint x="140" y="400" as="targetPoint" />
          </mxGeometry>
        </mxCell>
        <mxCell id="9uluXXyxtx34aAbPC6YU-18" value="Install &lt;b&gt;NodeJS&lt;/b&gt;" style="rounded=1;whiteSpace=wrap;html=1;absoluteArcSize=1;arcSize=14;strokeWidth=4;strokeColor=#ff7d00;" vertex="1" parent="WIyWlLk6GJQsqaUBKTNV-1">
          <mxGeometry x="80" y="320" width="120" height="40" as="geometry" />
        </mxCell>
        <mxCell id="9uluXXyxtx34aAbPC6YU-26" style="edgeStyle=orthogonalEdgeStyle;rounded=0;orthogonalLoop=1;jettySize=auto;html=1;exitX=1;exitY=0.5;exitDx=0;exitDy=0;exitPerimeter=0;entryX=0;entryY=0.5;entryDx=0;entryDy=0;" edge="1" parent="WIyWlLk6GJQsqaUBKTNV-1" source="9uluXXyxtx34aAbPC6YU-22" target="9uluXXyxtx34aAbPC6YU-25">
          <mxGeometry relative="1" as="geometry" />
        </mxCell>
        <mxCell id="9uluXXyxtx34aAbPC6YU-27" value="No" style="edgeLabel;html=1;align=center;verticalAlign=middle;resizable=0;points=[];" vertex="1" connectable="0" parent="9uluXXyxtx34aAbPC6YU-26">
          <mxGeometry x="-0.1385" relative="1" as="geometry">
            <mxPoint x="4" as="offset" />
          </mxGeometry>
        </mxCell>
        <mxCell id="9uluXXyxtx34aAbPC6YU-29" style="edgeStyle=orthogonalEdgeStyle;rounded=0;orthogonalLoop=1;jettySize=auto;html=1;entryX=0.5;entryY=0;entryDx=0;entryDy=0;" edge="1" parent="WIyWlLk6GJQsqaUBKTNV-1" source="9uluXXyxtx34aAbPC6YU-22" target="9uluXXyxtx34aAbPC6YU-28">
          <mxGeometry relative="1" as="geometry" />
        </mxCell>
        <mxCell id="9uluXXyxtx34aAbPC6YU-30" value="Yes" style="edgeLabel;html=1;align=center;verticalAlign=middle;resizable=0;points=[];" vertex="1" connectable="0" parent="9uluXXyxtx34aAbPC6YU-29">
          <mxGeometry x="0.04" relative="1" as="geometry">
            <mxPoint y="-6" as="offset" />
          </mxGeometry>
        </mxCell>
        <mxCell id="9uluXXyxtx34aAbPC6YU-22" value="Cache&lt;br&gt;Dependencies?" style="strokeWidth=2;html=1;shape=mxgraph.flowchart.decision;whiteSpace=wrap;" vertex="1" parent="WIyWlLk6GJQsqaUBKTNV-1">
          <mxGeometry x="90" y="400" width="100" height="100" as="geometry" />
        </mxCell>
        <mxCell id="9uluXXyxtx34aAbPC6YU-31" style="edgeStyle=orthogonalEdgeStyle;rounded=0;orthogonalLoop=1;jettySize=auto;html=1;exitX=0.5;exitY=1;exitDx=0;exitDy=0;entryX=1;entryY=0.5;entryDx=0;entryDy=0;" edge="1" parent="WIyWlLk6GJQsqaUBKTNV-1" source="9uluXXyxtx34aAbPC6YU-25" target="9uluXXyxtx34aAbPC6YU-28">
          <mxGeometry relative="1" as="geometry" />
        </mxCell>
        <mxCell id="9uluXXyxtx34aAbPC6YU-25" value="Install Dependencies" style="rounded=1;whiteSpace=wrap;html=1;absoluteArcSize=1;arcSize=14;strokeWidth=4;strokeColor=#ff7d00;" vertex="1" parent="WIyWlLk6GJQsqaUBKTNV-1">
          <mxGeometry x="320" y="425" width="120" height="50" as="geometry" />
        </mxCell>
        <mxCell id="9uluXXyxtx34aAbPC6YU-33" style="edgeStyle=orthogonalEdgeStyle;rounded=0;orthogonalLoop=1;jettySize=auto;html=1;exitX=0.5;exitY=1;exitDx=0;exitDy=0;entryX=0.5;entryY=0;entryDx=0;entryDy=0;" edge="1" parent="WIyWlLk6GJQsqaUBKTNV-1" source="9uluXXyxtx34aAbPC6YU-28" target="9uluXXyxtx34aAbPC6YU-32">
          <mxGeometry relative="1" as="geometry" />
        </mxCell>
        <mxCell id="9uluXXyxtx34aAbPC6YU-28" value="&lt;b&gt;Git &lt;/b&gt;config" style="rounded=1;whiteSpace=wrap;html=1;absoluteArcSize=1;arcSize=14;strokeWidth=4;strokeColor=#ff7d00;" vertex="1" parent="WIyWlLk6GJQsqaUBKTNV-1">
          <mxGeometry x="80" y="550" width="120" height="50" as="geometry" />
        </mxCell>
        <mxCell id="9uluXXyxtx34aAbPC6YU-35" style="edgeStyle=orthogonalEdgeStyle;rounded=0;orthogonalLoop=1;jettySize=auto;html=1;exitX=0.5;exitY=1;exitDx=0;exitDy=0;entryX=0.5;entryY=0;entryDx=0;entryDy=0;entryPerimeter=0;" edge="1" parent="WIyWlLk6GJQsqaUBKTNV-1" source="9uluXXyxtx34aAbPC6YU-32" target="9uluXXyxtx34aAbPC6YU-34">
          <mxGeometry relative="1" as="geometry" />
        </mxCell>
        <mxCell id="9uluXXyxtx34aAbPC6YU-32" value="Run &lt;br&gt;&lt;b&gt;ESLint &lt;/b&gt;&amp;amp;&lt;b&gt; Prettier&lt;/b&gt;" style="rounded=1;whiteSpace=wrap;html=1;absoluteArcSize=1;arcSize=14;strokeWidth=4;strokeColor=#ff7d00;" vertex="1" parent="WIyWlLk6GJQsqaUBKTNV-1">
          <mxGeometry x="80" y="640" width="120" height="50" as="geometry" />
        </mxCell>
        <mxCell id="9uluXXyxtx34aAbPC6YU-37" style="edgeStyle=orthogonalEdgeStyle;rounded=0;orthogonalLoop=1;jettySize=auto;html=1;exitX=1;exitY=0.5;exitDx=0;exitDy=0;exitPerimeter=0;entryX=0;entryY=0.5;entryDx=0;entryDy=0;" edge="1" parent="WIyWlLk6GJQsqaUBKTNV-1" source="9uluXXyxtx34aAbPC6YU-34" target="9uluXXyxtx34aAbPC6YU-36">
          <mxGeometry relative="1" as="geometry" />
        </mxCell>
        <mxCell id="9uluXXyxtx34aAbPC6YU-38" value="Yes" style="edgeLabel;html=1;align=center;verticalAlign=middle;resizable=0;points=[];" vertex="1" connectable="0" parent="9uluXXyxtx34aAbPC6YU-37">
          <mxGeometry x="0.2" y="1" relative="1" as="geometry">
            <mxPoint x="-18" y="1" as="offset" />
          </mxGeometry>
        </mxCell>
        <mxCell id="9uluXXyxtx34aAbPC6YU-40" style="edgeStyle=orthogonalEdgeStyle;rounded=0;orthogonalLoop=1;jettySize=auto;html=1;exitX=0.5;exitY=1;exitDx=0;exitDy=0;exitPerimeter=0;entryX=0.5;entryY=0;entryDx=0;entryDy=0;" edge="1" parent="WIyWlLk6GJQsqaUBKTNV-1" source="9uluXXyxtx34aAbPC6YU-34" target="9uluXXyxtx34aAbPC6YU-39">
          <mxGeometry relative="1" as="geometry" />
        </mxCell>
        <mxCell id="9uluXXyxtx34aAbPC6YU-42" value="No" style="edgeLabel;html=1;align=center;verticalAlign=middle;resizable=0;points=[];" vertex="1" connectable="0" parent="9uluXXyxtx34aAbPC6YU-40">
          <mxGeometry x="-0.54" y="-4" relative="1" as="geometry">
            <mxPoint x="4" y="8" as="offset" />
          </mxGeometry>
        </mxCell>
        <mxCell id="9uluXXyxtx34aAbPC6YU-34" value="Files to&lt;br&gt;commit?" style="strokeWidth=2;html=1;shape=mxgraph.flowchart.decision;whiteSpace=wrap;" vertex="1" parent="WIyWlLk6GJQsqaUBKTNV-1">
          <mxGeometry x="90" y="730" width="100" height="100" as="geometry" />
        </mxCell>
        <mxCell id="9uluXXyxtx34aAbPC6YU-41" style="edgeStyle=orthogonalEdgeStyle;rounded=0;orthogonalLoop=1;jettySize=auto;html=1;exitX=0.5;exitY=1;exitDx=0;exitDy=0;entryX=1;entryY=0.5;entryDx=0;entryDy=0;" edge="1" parent="WIyWlLk6GJQsqaUBKTNV-1" source="9uluXXyxtx34aAbPC6YU-36" target="9uluXXyxtx34aAbPC6YU-39">
          <mxGeometry relative="1" as="geometry" />
        </mxCell>
        <mxCell id="9uluXXyxtx34aAbPC6YU-36" value="Commit Changes" style="rounded=1;whiteSpace=wrap;html=1;absoluteArcSize=1;arcSize=14;strokeWidth=4;strokeColor=#ff7d00;" vertex="1" parent="WIyWlLk6GJQsqaUBKTNV-1">
          <mxGeometry x="320" y="755" width="120" height="50" as="geometry" />
        </mxCell>
        <mxCell id="9uluXXyxtx34aAbPC6YU-39" value="Generate Docs" style="rounded=1;whiteSpace=wrap;html=1;absoluteArcSize=1;arcSize=14;strokeWidth=4;strokeColor=#ff7d00;" vertex="1" parent="WIyWlLk6GJQsqaUBKTNV-1">
          <mxGeometry x="80" y="880" width="120" height="50" as="geometry" />
        </mxCell>
        <mxCell id="9uluXXyxtx34aAbPC6YU-43" style="edgeStyle=orthogonalEdgeStyle;rounded=0;orthogonalLoop=1;jettySize=auto;html=1;entryX=0.5;entryY=0;entryDx=0;entryDy=0;entryPerimeter=0;exitX=0.5;exitY=1;exitDx=0;exitDy=0;" edge="1" parent="WIyWlLk6GJQsqaUBKTNV-1" target="9uluXXyxtx34aAbPC6YU-48" source="9uluXXyxtx34aAbPC6YU-39">
          <mxGeometry relative="1" as="geometry">
            <mxPoint x="260" y="970" as="sourcePoint" />
          </mxGeometry>
        </mxCell>
        <mxCell id="9uluXXyxtx34aAbPC6YU-44" style="edgeStyle=orthogonalEdgeStyle;rounded=0;orthogonalLoop=1;jettySize=auto;html=1;exitX=1;exitY=0.5;exitDx=0;exitDy=0;exitPerimeter=0;entryX=0;entryY=0.5;entryDx=0;entryDy=0;" edge="1" parent="WIyWlLk6GJQsqaUBKTNV-1" source="9uluXXyxtx34aAbPC6YU-48" target="9uluXXyxtx34aAbPC6YU-50">
          <mxGeometry relative="1" as="geometry" />
        </mxCell>
        <mxCell id="9uluXXyxtx34aAbPC6YU-45" value="Yes" style="edgeLabel;html=1;align=center;verticalAlign=middle;resizable=0;points=[];" vertex="1" connectable="0" parent="9uluXXyxtx34aAbPC6YU-44">
          <mxGeometry x="0.2" y="1" relative="1" as="geometry">
            <mxPoint x="-18" y="1" as="offset" />
          </mxGeometry>
        </mxCell>
        <mxCell id="9uluXXyxtx34aAbPC6YU-46" style="edgeStyle=orthogonalEdgeStyle;rounded=0;orthogonalLoop=1;jettySize=auto;html=1;exitX=0.5;exitY=1;exitDx=0;exitDy=0;exitPerimeter=0;entryX=0.5;entryY=0;entryDx=0;entryDy=0;" edge="1" parent="WIyWlLk6GJQsqaUBKTNV-1" source="9uluXXyxtx34aAbPC6YU-48" target="9uluXXyxtx34aAbPC6YU-51">
          <mxGeometry relative="1" as="geometry" />
        </mxCell>
        <mxCell id="9uluXXyxtx34aAbPC6YU-47" value="No" style="edgeLabel;html=1;align=center;verticalAlign=middle;resizable=0;points=[];" vertex="1" connectable="0" parent="9uluXXyxtx34aAbPC6YU-46">
          <mxGeometry x="-0.54" y="-4" relative="1" as="geometry">
            <mxPoint x="4" y="8" as="offset" />
          </mxGeometry>
        </mxCell>
        <mxCell id="9uluXXyxtx34aAbPC6YU-48" value="Files to&lt;br&gt;commit?" style="strokeWidth=2;html=1;shape=mxgraph.flowchart.decision;whiteSpace=wrap;" vertex="1" parent="WIyWlLk6GJQsqaUBKTNV-1">
          <mxGeometry x="90" y="970" width="100" height="100" as="geometry" />
        </mxCell>
        <mxCell id="9uluXXyxtx34aAbPC6YU-49" style="edgeStyle=orthogonalEdgeStyle;rounded=0;orthogonalLoop=1;jettySize=auto;html=1;exitX=0.5;exitY=1;exitDx=0;exitDy=0;entryX=1;entryY=0.5;entryDx=0;entryDy=0;" edge="1" parent="WIyWlLk6GJQsqaUBKTNV-1" source="9uluXXyxtx34aAbPC6YU-50" target="9uluXXyxtx34aAbPC6YU-51">
          <mxGeometry relative="1" as="geometry" />
        </mxCell>
        <mxCell id="9uluXXyxtx34aAbPC6YU-50" value="Commit Changes" style="rounded=1;whiteSpace=wrap;html=1;absoluteArcSize=1;arcSize=14;strokeWidth=4;strokeColor=#ff7d00;" vertex="1" parent="WIyWlLk6GJQsqaUBKTNV-1">
          <mxGeometry x="320" y="995" width="120" height="50" as="geometry" />
        </mxCell>
        <mxCell id="9uluXXyxtx34aAbPC6YU-55" style="edgeStyle=orthogonalEdgeStyle;rounded=0;orthogonalLoop=1;jettySize=auto;html=1;exitX=0.5;exitY=1;exitDx=0;exitDy=0;entryX=0.5;entryY=0;entryDx=0;entryDy=0;" edge="1" parent="WIyWlLk6GJQsqaUBKTNV-1" source="9uluXXyxtx34aAbPC6YU-51" target="9uluXXyxtx34aAbPC6YU-52">
          <mxGeometry relative="1" as="geometry" />
        </mxCell>
        <mxCell id="9uluXXyxtx34aAbPC6YU-51" value="Test runner" style="rounded=1;whiteSpace=wrap;html=1;absoluteArcSize=1;arcSize=14;strokeWidth=4;strokeColor=#ff7d00;" vertex="1" parent="WIyWlLk6GJQsqaUBKTNV-1">
          <mxGeometry x="80" y="1120" width="120" height="50" as="geometry" />
        </mxCell>
        <mxCell id="9uluXXyxtx34aAbPC6YU-56" style="edgeStyle=orthogonalEdgeStyle;rounded=0;orthogonalLoop=1;jettySize=auto;html=1;exitX=0.5;exitY=1;exitDx=0;exitDy=0;entryX=0.5;entryY=0;entryDx=0;entryDy=0;" edge="1" parent="WIyWlLk6GJQsqaUBKTNV-1" source="9uluXXyxtx34aAbPC6YU-52" target="9uluXXyxtx34aAbPC6YU-53">
          <mxGeometry relative="1" as="geometry" />
        </mxCell>
        <mxCell id="9uluXXyxtx34aAbPC6YU-52" value="Build" style="rounded=1;whiteSpace=wrap;html=1;absoluteArcSize=1;arcSize=14;strokeWidth=4;strokeColor=#ff7d00;" vertex="1" parent="WIyWlLk6GJQsqaUBKTNV-1">
          <mxGeometry x="80" y="1210" width="120" height="50" as="geometry" />
        </mxCell>
        <mxCell id="9uluXXyxtx34aAbPC6YU-57" style="edgeStyle=orthogonalEdgeStyle;rounded=0;orthogonalLoop=1;jettySize=auto;html=1;exitX=0.5;exitY=1;exitDx=0;exitDy=0;entryX=0.5;entryY=0;entryDx=0;entryDy=0;" edge="1" parent="WIyWlLk6GJQsqaUBKTNV-1" source="9uluXXyxtx34aAbPC6YU-53" target="9uluXXyxtx34aAbPC6YU-54">
          <mxGeometry relative="1" as="geometry" />
        </mxCell>
        <mxCell id="9uluXXyxtx34aAbPC6YU-53" value="Release" style="rounded=1;whiteSpace=wrap;html=1;absoluteArcSize=1;arcSize=14;strokeWidth=4;strokeColor=#ff7d00;" vertex="1" parent="WIyWlLk6GJQsqaUBKTNV-1">
          <mxGeometry x="80" y="1300" width="120" height="50" as="geometry" />
        </mxCell>
        <mxCell id="9uluXXyxtx34aAbPC6YU-60" style="edgeStyle=orthogonalEdgeStyle;rounded=0;orthogonalLoop=1;jettySize=auto;html=1;exitX=0.5;exitY=1;exitDx=0;exitDy=0;entryX=0.5;entryY=0;entryDx=0;entryDy=0;entryPerimeter=0;" edge="1" parent="WIyWlLk6GJQsqaUBKTNV-1" source="9uluXXyxtx34aAbPC6YU-54" target="9uluXXyxtx34aAbPC6YU-59">
          <mxGeometry relative="1" as="geometry" />
        </mxCell>
        <mxCell id="9uluXXyxtx34aAbPC6YU-54" value="Send Notification" style="rounded=1;whiteSpace=wrap;html=1;absoluteArcSize=1;arcSize=14;strokeWidth=4;strokeColor=#ff7d00;" vertex="1" parent="WIyWlLk6GJQsqaUBKTNV-1">
          <mxGeometry x="80" y="1390" width="120" height="50" as="geometry" />
        </mxCell>
        <mxCell id="9uluXXyxtx34aAbPC6YU-59" value="End" style="strokeWidth=2;html=1;shape=mxgraph.flowchart.terminator;whiteSpace=wrap;" vertex="1" parent="WIyWlLk6GJQsqaUBKTNV-1">
          <mxGeometry x="110" y="1480" width="60" height="30" as="geometry" />
        </mxCell>
      </root>
    </mxGraphModel>
  </diagram>
</mxfile>
